<?xml version="1.0" encoding="utf-8"?>
<!-- Generator: Adobe Illustrator 21.0.0, SVG Export Plug-In . SVG Version: 6.00 Build 0)  -->
<svg version="1.1" id="레이어_1" xmlns="http://www.w3.org/2000/svg" xmlns:xlink="http://www.w3.org/1999/xlink" x="0px"
	 y="0px" viewBox="0 0 269.7 35.4" style="enable-background:new 0 0 269.7 35.4;" xml:space="preserve">
<style type="text/css">
	.st0{fill:#FFFFFF;}
</style>
<path class="st0" d="M12.7,35.4c-5.9,0-9.9-2.1-12.7-6.1l5.6-3.5c1.6,2.5,3.7,3.6,6.1,3.6c3.6,0,5.4-1.6,5.4-6.4V0.2h8.1v23.4
	C25.3,30.1,21.4,35.4,12.7,35.4L12.7,35.4z M60.6,29v5.8H35.1V0.2h25V6H43.2v8h14.3v5.8H43.2V29H60.6L60.6,29z M77.8,35.4
	c-5.9,0-9.9-2.1-12.7-6.1l5.6-3.5c1.6,2.5,3.7,3.6,6.1,3.6c3.6,0,5.4-1.6,5.4-6.4V0.2h8.1v23.4C90.4,30.1,86.5,35.4,77.8,35.4
	L77.8,35.4z M115.8,35.4c-9.9,0-15.9-4.7-15.9-16.2v-19h8.1v19.6c0,7.2,2.9,9.6,7.7,9.6c4.8,0,7.9-2.4,7.9-9.6V0.2h7.8v19
	C131.5,30.7,125.7,35.4,115.8,35.4L115.8,35.4z M146.5,3.9v12H162v3.3h-15.5v15.6h-4.6V0.6h22.9v3.3H146.5L146.5,3.9z M182.2,35.4
	c-10,0-17-6.9-17-17.8c0-10.9,7-17.5,17-17.5c10,0,17.1,6.7,17.1,17.5C199.2,28.5,192.2,35.4,182.2,35.4L182.2,35.4z M182.2,3.4
	c-7.4,0-12.3,5.4-12.3,14.1c0,8.8,4.9,14.4,12.3,14.4c7.5,0,12.4-5.6,12.4-14.4C194.5,8.8,189.6,3.4,182.2,3.4L182.2,3.4z
	 M218.9,35.4c-10,0-17-6.9-17-17.8c0-10.9,7-17.5,17-17.5c10,0,17.1,6.7,17.1,17.5C235.9,28.5,228.9,35.4,218.9,35.4L218.9,35.4z
	 M218.9,3.4c-7.4,0-12.3,5.4-12.3,14.1c0,8.8,4.9,14.4,12.3,14.4c7.5,0,12.4-5.6,12.4-14.4C231.2,8.8,226.3,3.4,218.9,3.4L218.9,3.4
	z M251,34.8h-10.1V0.6h9.9c12.4,0,18.8,6.2,18.8,16.9C269.7,28.3,263.2,34.8,251,34.8L251,34.8z M250.5,3.8h-5v27.8h5
	c9.8,0,14.5-5.3,14.5-14C265,8.8,260.2,3.8,250.5,3.8L250.5,3.8z"/>
</svg>
